<?xml version="1.0" encoding="utf-8"?>
<!-- Generator: Adobe Illustrator 25.0.0, SVG Export Plug-In . SVG Version: 6.00 Build 0)  -->
<svg version="1.1" id="Layer_1" xmlns="http://www.w3.org/2000/svg" xmlns:xlink="http://www.w3.org/1999/xlink" x="0px" y="0px"
	 viewBox="0 0 235 60" style="enable-background:new 0 0 235 60;" xml:space="preserve">
<style type="text/css">
	.st0{fill:#D9254C;}
</style>
<path class="st0" d="M147.2,55.8h-2l-1.5-3.8h-8l-1.5,3.9h-2l6.6-16.5h1.8L147.2,55.8z M139.6,41.9l-3.2,8.3h6.6l-3.2-8.3l-0.1-0.3
	L139.6,41.9z"/>
<path class="st0" d="M151.5,55.3c-1-0.5-1.7-1.3-2.3-2.3c-1.8-3-0.7-6.9,2.3-8.7c1-0.6,2.1-0.9,3.2-0.8c0.8,0,1.7,0.1,2.5,0.5
	c0.7,0.3,1.4,0.8,2,1.3l-1,1.3c-0.9-0.9-2.2-1.4-3.4-1.4c-0.8,0-1.6,0.2-2.3,0.6c-1.4,0.9-2.3,2.4-2.3,4.1c0,0.8,0.2,1.6,0.6,2.4
	c0.4,0.7,1,1.3,1.7,1.7c0.7,0.4,1.5,0.6,2.3,0.6c1.3,0,2.5-0.5,3.5-1.4l0.9,1.3c-0.6,0.5-1.3,1-2,1.3
	C155.3,56.4,153.2,56.3,151.5,55.3L151.5,55.3z"/>
<path class="st0" d="M170.1,43.6h1.9v12.2h-1.8v-2c-0.5,0.7-1.1,1.2-1.8,1.6c-0.7,0.4-1.6,0.6-2.4,0.6c-1,0-2.1-0.3-2.9-0.8
	c-0.9-0.6-1.6-1.4-2-2.3c-1-2-1-4.4,0-6.4c0.5-0.9,1.2-1.7,2.1-2.3c0.9-0.5,1.8-0.8,2.8-0.8c0.8,0,1.6,0.2,2.4,0.6
	c0.7,0.4,1.3,0.9,1.7,1.6L170.1,43.6z M168.3,53.7c0.6-0.4,1.1-1,1.5-1.6c0.7-1.5,0.7-3.2,0-4.7c-0.3-0.7-0.8-1.2-1.5-1.7
	c-0.6-0.4-1.4-0.6-2.1-0.6c-0.7,0-1.5,0.2-2.1,0.6c-0.6,0.4-1.1,1-1.4,1.7c-0.3,0.7-0.5,1.5-0.5,2.3c0,0.8,0.2,1.6,0.5,2.4
	c0.3,0.7,0.8,1.2,1.4,1.6c0.6,0.4,1.4,0.6,2.1,0.6C166.9,54.4,167.6,54.2,168.3,53.7z"/>
<path class="st0" d="M184.8,38.2h1.8v17.6h-1.8v-2c-0.5,0.7-1.1,1.2-1.8,1.6c-0.7,0.4-1.6,0.6-2.4,0.6c-1,0-2.1-0.3-2.9-0.8
	c-0.9-0.6-1.6-1.4-2.1-2.3c-1-2-1-4.4,0-6.4c0.5-0.9,1.2-1.7,2.1-2.3c0.9-0.6,1.9-0.9,2.9-0.8c0.8,0,1.6,0.2,2.4,0.6
	c0.7,0.4,1.3,0.9,1.7,1.6L184.8,38.2z M183,53.7c0.6-0.4,1.1-1,1.4-1.6c0.7-1.5,0.7-3.2,0-4.7c-0.3-0.7-0.8-1.2-1.4-1.7
	c-0.6-0.4-1.4-0.6-2.1-0.6c-0.7,0-1.5,0.2-2.1,0.6c-0.6,0.4-1.1,1-1.4,1.7c-0.3,0.7-0.5,1.5-0.5,2.3c0,0.8,0.2,1.6,0.5,2.4
	c0.3,0.7,0.8,1.2,1.4,1.6c0.6,0.4,1.4,0.6,2.1,0.6C181.6,54.4,182.4,54.2,183,53.7z"/>
<path class="st0" d="M191.5,50.4c0.1,0.7,0.3,1.5,0.7,2.1c0.8,1.2,2.1,1.9,3.5,1.9c0.7,0,1.3-0.1,1.9-0.4c0.6-0.2,1.1-0.6,1.6-1
	l1,1.3c-1.2,1.2-2.9,1.8-4.5,1.8c-1.1,0-2.1-0.3-3-0.8c-0.9-0.6-1.7-1.4-2.2-2.3c-0.5-1-0.8-2.1-0.8-3.2c0-1.1,0.2-2.2,0.7-3.2
	c0.5-0.9,1.1-1.7,2-2.3c0.9-0.6,1.9-0.9,2.9-0.8c2.1-0.1,4,1.2,4.9,3.1c0.5,1,0.7,2.1,0.7,3.3c0,0.2,0,0.4,0,0.7L191.5,50.4z
	 M193.6,45.6c-0.5,0.3-1,0.8-1.3,1.3c-0.4,0.6-0.6,1.2-0.7,1.9h7.5c-0.1-0.7-0.3-1.3-0.7-1.9c-0.3-0.5-0.7-1-1.3-1.3
	c-0.5-0.3-1.1-0.5-1.7-0.5C194.8,45.1,194.2,45.3,193.6,45.6z"/>
<path class="st0" d="M219.5,44c0.7,0.4,1.2,1,1.6,1.7c0.4,0.8,0.6,1.7,0.6,2.6v7.5h-1.8v-7.3c0-0.6-0.1-1.2-0.4-1.8
	c-0.2-0.5-0.6-0.9-1-1.2c-1-0.6-2.2-0.5-3.2,0.1c-0.5,0.3-0.9,0.8-1.2,1.4c-0.3,0.6-0.4,1.2-0.4,1.8v7h-1.8v-7.3
	c0-0.6-0.1-1.2-0.4-1.8c-0.2-0.5-0.6-0.9-1-1.2c-0.5-0.3-1-0.4-1.5-0.4c-0.6,0-1.1,0.2-1.6,0.5c-0.5,0.3-0.9,0.8-1.2,1.4
	c-0.3,0.6-0.4,1.2-0.4,1.8v7H204V43.6h1.7V45c0.4-0.5,1-0.9,1.6-1.2c0.6-0.3,1.2-0.4,1.9-0.4c0.8,0,1.7,0.2,2.4,0.6
	c0.7,0.4,1.2,1,1.6,1.7c0.4-0.7,1-1.3,1.7-1.7c0.7-0.4,1.5-0.6,2.2-0.6C218,43.4,218.8,43.6,219.5,44z"/>
<path class="st0" d="M228.3,60h-2l1.8-4.2l-5-12.2h2l3.9,10l3.9-10h2L228.3,60z"/>
<polygon class="st0" points="5.9,2.8 5.9,0.7 0,0.7 0,2.8 0,33.3 20,33.3 20,27.7 5.9,27.7 "/>
<polygon class="st0" points="45.7,10.5 38.6,10.5 29.8,20.4 29.8,0.8 24.2,0.8 24.2,33.3 29.8,33.3 29.8,27.3 33.2,23.7 40.3,33.3 
	46.9,33.3 36.9,19.8 "/>
<path class="st0" d="M67.4,11.2c-1.5-0.8-3.1-1.2-4.8-1.2c-2.7,0.1-5.2,1.1-7.2,3V0.8H50v32.6h5.5V20.7c0-2,1-3.8,2.8-4.8
	c0.9-0.5,1.8-0.7,2.8-0.7c1.4-0.1,2.7,0.5,3.7,1.5c0.9,1.2,1.4,2.7,1.3,4.2v12.5h5.6V19.8c0-1.8-0.3-3.6-1.1-5.3
	C69.9,13.1,68.8,12,67.4,11.2z"/>
<path class="st0" d="M81.5,0.5c-1.1-0.6-2.5-0.6-3.6,0c-0.5,0.3-0.9,0.7-1.2,1.2c-0.6,1-0.6,2.2,0,3.2c0.3,0.5,0.7,0.9,1.2,1.2
	c1.1,0.6,2.5,0.6,3.6,0C82,5.9,82.4,5.5,82.7,5c0.6-1,0.6-2.2,0-3.2C82.4,1.2,82,0.8,81.5,0.5z"/>
<rect x="76.9" y="10.5" class="st0" width="5.5" height="22.8"/>
<path class="st0" d="M106.4,11.6c-1.7-1.1-3.7-1.6-5.7-1.6c-2.5-0.1-4.9,1-6.7,2.8V1.3h-5.6v32.1h4.8l0.4-2.7c0.9,1,1.9,1.8,3.1,2.4
	c1.2,0.6,2.6,0.9,3.9,0.9c2,0,4-0.5,5.7-1.6c1.7-1.1,3.2-2.5,4.2-4.3c1-1.8,1.6-3.9,1.5-6C112.1,17.7,110,13.8,106.4,11.6
	L106.4,11.6z M105.8,25.4c-0.5,1-1.3,1.8-2.3,2.4c-1,0.6-2.1,0.9-3.3,0.8c-1.2,0-2.3-0.3-3.3-0.9c-1-0.6-1.8-1.4-2.4-2.4
	c-0.6-1-0.9-2.2-0.9-3.4c0-1.2,0.3-2.4,0.9-3.4c0.6-1,1.4-1.8,2.4-2.4c1-0.6,2.1-0.9,3.3-0.9c2.3,0,4.5,1.2,5.6,3.3
	C106.9,20.7,106.9,23.2,105.8,25.4z"/>
<path class="st0" d="M130.5,10.5c-0.9-0.3-1.7-0.5-2.7-0.5c-1.2,0-2.5,0.3-3.5,0.9c-1.1,0.6-1.9,1.5-2.5,2.6l-0.4-3.1h-4.8v22.8h5.5
	V21.4c0-1.1,0.3-2.2,0.8-3.2c0.4-0.9,1.1-1.6,1.8-2.1c0.7-0.5,1.5-0.8,2.4-0.8c1.3,0,2.5,0.4,3.5,1.2l2.5-4.5
	C132.3,11.3,131.4,10.8,130.5,10.5z"/>
<path class="st0" d="M150.9,13.3c-0.8-1-1.9-1.8-3.1-2.4c-1.2-0.6-2.6-0.9-4-0.9c-2,0-4,0.5-5.7,1.6c-1.7,1.1-3.2,2.6-4.2,4.4
	c-1,1.8-1.6,3.9-1.6,6c0,2.1,0.5,4.2,1.5,6c1,1.8,2.4,3.3,4.2,4.3c1.7,1.1,3.7,1.6,5.7,1.6c1.4,0,2.7-0.3,3.9-0.9
	c1.2-0.6,2.2-1.4,3.1-2.4l0.4,2.7h4.8V10.5h-4.8L150.9,13.3z M150,25.4c-0.6,1-1.4,1.8-2.4,2.4c-1,0.6-2.1,0.9-3.3,0.9
	c-1.1,0-2.3-0.3-3.3-0.8c-1-0.6-1.8-1.4-2.3-2.4c-1.1-2.1-1.1-4.7,0-6.8c0.5-1,1.3-1.8,2.3-2.4c1-0.6,2.1-0.9,3.3-0.9
	c1.2,0,2.3,0.3,3.3,0.9c1,0.6,1.8,1.4,2.4,2.4c0.6,1,0.9,2.2,0.9,3.4C150.9,23.2,150.6,24.3,150,25.4z"/>
<path class="st0" d="M166.1,27.9c-1.1-0.6-2.4-0.6-3.5,0c-0.5,0.3-0.9,0.7-1.2,1.1c-0.6,1-0.6,2.2,0,3.2c0.3,0.5,0.7,0.9,1.2,1.2
	c0.5,0.3,1.1,0.4,1.8,0.4c0.6,0,1.2-0.1,1.8-0.4c0.5-0.3,0.9-0.7,1.2-1.2c0.3-0.5,0.4-1.1,0.4-1.6c0-0.6-0.1-1.1-0.4-1.6
	C167,28.5,166.6,28.1,166.1,27.9z"/>
<path class="st0" d="M203.5,11.1c-1.4-0.8-2.9-1.2-4.5-1.1c-1.5,0-2.9,0.3-4.2,1c-1.3,0.7-2.5,1.7-3.3,2.9c-0.7-1.2-1.7-2.2-2.9-2.9
	c-1.3-0.7-2.8-1-4.2-1c-1.3,0-2.5,0.3-3.7,0.8c-1.2,0.5-2.2,1.2-3.1,2.1l-0.3-2.4h-4.8v22.8h5.5V20.6c0-0.9,0.2-1.9,0.6-2.7
	c0.4-0.8,1-1.5,1.7-2c0.7-0.5,1.6-0.7,2.5-0.7c1.2,0,2.4,0.5,3.2,1.4c0.8,1.1,1.3,2.5,1.2,3.8v13h5.5V20.6c0-0.9,0.2-1.9,0.6-2.7
	c0.4-0.8,1-1.5,1.7-2c0.7-0.5,1.6-0.7,2.5-0.7c1.2,0,2.4,0.5,3.2,1.4c0.8,1.1,1.3,2.5,1.2,3.8v13h5.5V19.6c0.1-1.8-0.3-3.6-1-5.2
	C205.9,13,204.9,11.9,203.5,11.1z"/>
<path class="st0" d="M230.2,10.5l-0.4,2.8c-0.8-1-1.9-1.8-3.1-2.4c-1.2-0.6-2.6-0.9-4-0.9c-2,0-4,0.5-5.7,1.6
	c-3.6,2.2-5.8,6.1-5.7,10.4c0,2.1,0.5,4.2,1.5,6c1,1.8,2.4,3.3,4.2,4.3c1.7,1.1,3.7,1.6,5.7,1.6c1.4,0,2.7-0.3,3.9-0.9
	c1.2-0.6,2.2-1.4,3.1-2.4l0.4,2.7h4.8V10.5H230.2z M228.9,25.4c-0.6,1-1.4,1.8-2.4,2.4c-1,0.6-2.1,0.9-3.3,0.9
	c-1.1,0-2.3-0.3-3.3-0.8c-1-0.6-1.8-1.4-2.3-2.4c-1.1-2.1-1.1-4.7,0-6.8c1.1-2,3.3-3.3,5.6-3.3c1.2,0,2.3,0.3,3.3,0.9
	c1,0.6,1.8,1.4,2.4,2.4c0.6,1,0.9,2.2,0.9,3.4C229.8,23.2,229.5,24.3,228.9,25.4z"/>
</svg>
